<svg width="16" height="17" viewBox="0 0 16 17" fill="none" xmlns="http://www.w3.org/2000/svg">
<path d="M7.68335 2.43381C7.71257 2.37478 7.7577 2.3251 7.81366 2.29036C7.86961 2.25562 7.93416 2.23721 8.00002 2.23721C8.06588 2.23721 8.13043 2.25562 8.18639 2.29036C8.24234 2.3251 8.28747 2.37478 8.31669 2.43381L9.85669 5.55314C9.95814 5.75845 10.1079 5.93608 10.2931 6.07078C10.4783 6.20547 10.6934 6.29322 10.92 6.32648L14.364 6.83048C14.4293 6.83993 14.4906 6.86746 14.541 6.90994C14.5914 6.95243 14.629 7.00817 14.6494 7.07088C14.6698 7.13359 14.6722 7.20075 14.6564 7.26477C14.6406 7.32879 14.6072 7.38711 14.56 7.43314L12.0694 9.85848C11.9051 10.0185 11.7822 10.2161 11.7112 10.4342C11.6403 10.6523 11.6234 10.8844 11.662 11.1105L12.25 14.5371C12.2615 14.6024 12.2545 14.6695 12.2297 14.7309C12.2049 14.7923 12.1633 14.8455 12.1097 14.8845C12.0561 14.9234 11.9927 14.9465 11.9266 14.9511C11.8605 14.9557 11.7945 14.9416 11.736 14.9105L8.65735 13.2918C8.4545 13.1853 8.22881 13.1296 7.99969 13.1296C7.77057 13.1296 7.54488 13.1853 7.34202 13.2918L4.26402 14.9105C4.20557 14.9414 4.13962 14.9553 4.07365 14.9506C4.00769 14.946 3.94437 14.9229 3.89088 14.884C3.8374 14.8451 3.79591 14.7919 3.77112 14.7306C3.74634 14.6693 3.73926 14.6023 3.75069 14.5371L4.33802 11.1111C4.37682 10.885 4.36001 10.6527 4.28905 10.4345C4.21808 10.2163 4.09509 10.0186 3.93069 9.85848L1.44002 7.43381C1.39242 7.38783 1.35868 7.32941 1.34266 7.26519C1.32664 7.20098 1.32898 7.13355 1.34941 7.0706C1.36983 7.00765 1.40753 6.9517 1.4582 6.90913C1.50888 6.86656 1.57049 6.83907 1.63602 6.82981L5.07935 6.32648C5.30619 6.29348 5.52161 6.20585 5.70708 6.07113C5.89254 5.93642 6.04249 5.75866 6.14402 5.55314L7.68335 2.43381Z" fill="#F6F6F6" stroke="#F6F6F6" stroke-width="2" stroke-linecap="round" stroke-linejoin="round"/>
</svg>
