<svg width="17" height="17" viewBox="0 0 17 17" fill="none" xmlns="http://www.w3.org/2000/svg">
<path d="M7.76953 9.67444V15.6119H3.55273C2.77048 15.6118 2.13673 14.9772 2.13672 14.1949V9.67444H7.76953ZM14.8643 14.1949C14.8642 14.9773 14.2297 15.6119 13.4473 15.6119H9.04395V9.67444H14.8643V14.1949ZM9.82031 2.25256C10.8583 1.59124 12.2361 1.89629 12.8975 2.9342C13.5587 3.97225 13.2528 5.35001 12.2148 6.01135C12.1855 6.03005 12.1538 6.04674 12.1221 6.06506H14.792C15.1832 6.06506 15.5 6.38285 15.5 6.77405V7.91077C15.5 8.10808 15.4084 8.28223 15.2676 8.39905H9.04395V5.94202H7.76953V8.39905H1.73242C1.59152 8.28223 1.50001 8.10796 1.5 7.91077V6.77405C1.5 6.38296 1.81696 6.06524 2.20801 6.06506H4.88086C4.8489 6.04664 4.81663 6.03016 4.78711 6.01135C3.7495 5.34994 3.44443 3.97209 4.10547 2.9342C4.76673 1.89655 6.14377 1.59161 7.18164 2.25256C7.61039 2.52574 8.11867 3.05744 8.50098 3.61878C8.88324 3.05743 9.39154 2.52583 9.82031 2.25256ZM6.49707 3.32776C6.05301 3.04496 5.46358 3.17562 5.18066 3.61975C4.89792 4.06389 5.02875 4.6532 5.47266 4.93616C5.74115 5.10718 6.34233 5.32019 6.94434 5.39514C7.23919 5.43183 7.49034 5.42855 7.6709 5.39319C7.86149 5.35577 7.87828 5.30366 7.8623 5.32874C7.8471 5.35291 7.88714 5.31494 7.84082 5.12756C7.79662 4.94887 7.69217 4.72035 7.53418 4.46838C7.21182 3.95433 6.76554 3.49886 6.49707 3.32776ZM11.8223 3.61975C11.5394 3.17575 10.9499 3.04509 10.5059 3.32776C10.2373 3.49892 9.79011 3.95432 9.46777 4.46838C9.30987 4.72026 9.20629 4.94893 9.16211 5.12756C9.11558 5.31578 9.1554 5.35354 9.13965 5.32874C9.12379 5.30391 9.14106 5.35582 9.33105 5.39319C9.51154 5.42862 9.76274 5.43179 10.0576 5.39514C10.6597 5.32023 11.2617 5.1072 11.5303 4.93616C11.974 4.6532 12.1049 4.06383 11.8223 3.61975Z" fill="#262F56"/>
</svg>
